<svg width="17" height="26" viewBox="0 0 17 26" fill="none" xmlns="http://www.w3.org/2000/svg">
<path d="M16.5825 8.12257C16.5825 7.9718 16.5442 7.8336 16.5378 7.68283V6.97925H16.4675C15.8985 3.04047 12.4721 0 8.29127 0C4.11048 0 0.690407 3.04047 0.115068 6.97925H0.0831045V7.30592C0.0575339 7.57604 0 7.83988 0 8.12257C0 8.14142 0.00639265 8.15398 0.00639265 8.17283H0.0831045V23.6264H16.5378V8.17283H16.5761C16.5761 8.15398 16.5825 8.13513 16.5825 8.12257Z" fill="#3F3434"/>
<path d="M9.49965 23.6264V8.17283H9.48047C9.48047 8.15398 9.48047 8.14142 9.48047 8.12257C9.48047 7.9718 9.49325 7.8336 9.49965 7.68284V6.97926H9.53161C9.77453 3.04047 11.2448 0 13.0412 0C14.8375 0 16.3078 3.04047 16.5507 6.97926H16.5635V7.30592C16.5763 7.57604 16.6019 7.83988 16.6019 8.12257C16.6019 8.14142 16.6019 8.15398 16.6019 8.17283H16.5699V23.6264L9.58275 25.9885L9.49965 23.6264H10.043Z" fill="#EC6130"/>
<path d="M11.1106 14.2158C11.3577 14.2158 11.5581 13.912 11.5581 13.5373C11.5581 13.1626 11.3577 12.8589 11.1106 12.8589C10.8634 12.8589 10.6631 13.1626 10.6631 13.5373C10.6631 13.912 10.8634 14.2158 11.1106 14.2158Z" fill="white"/>
</svg>
