<svg width="123" height="174" viewBox="0 0 123 174" fill="none" xmlns="http://www.w3.org/2000/svg">
<path d="M122.863 59.8197C122.863 58.7094 122.578 57.6916 122.531 56.5812V51.3996H122.01C117.795 22.3919 92.4074 0 61.4313 0C30.4551 0 5.11533 22.3919 0.852555 51.3996H0.615734V53.8054C0.426277 55.7947 0 57.7378 0 59.8197C0 59.9585 0.0473641 60.051 0.0473641 60.1898H0.615734V174H122.531V60.1898H122.815C122.815 60.051 122.863 59.9123 122.863 59.8197Z" fill="#EC6130"/>
<circle cx="21.2519" cy="99.6177" r="5.31298" fill="white"/>
<path fill-rule="evenodd" clip-rule="evenodd" d="M67 0.5V36.1876L53.6778 55.4308L53.5 55.6876V56V74.5H55.5V56.3124L59.5848 50.4122L78.5 60.5973V80V80.7095L79.1696 80.9439L99.1697 87.9439L99.8303 86.0561L80.5 79.2905V60V59.4027L79.9741 59.1195L60.7303 48.7575L68.8222 37.0692L69 36.8124V36.5V0.5H67Z" fill="black"/>
<path d="M80 71L66.5 84.5V97.5" stroke="black" stroke-width="2"/>
</svg>
