<svg width="42" height="27" viewBox="0 0 42 27" fill="none" xmlns="http://www.w3.org/2000/svg">
<path fill-rule="evenodd" clip-rule="evenodd" d="M0 2.01562C0 1.48105 0.207421 0.968366 0.576634 0.590363C0.945846 0.21236 1.44661 0 1.96875 0H40.0312C40.5534 0 41.0542 0.21236 41.4234 0.590363C41.7926 0.968366 42 1.48105 42 2.01562C42 2.5502 41.7926 3.06288 41.4234 3.44089C41.0542 3.81889 40.5534 4.03125 40.0312 4.03125H1.96875C1.44661 4.03125 0.945846 3.81889 0.576634 3.44089C0.207421 3.06288 0 2.5502 0 2.01562ZM0 13.4375C0 12.9029 0.207421 12.3902 0.576634 12.0122C0.945846 11.6342 1.44661 11.4219 1.96875 11.4219H40.0312C40.5534 11.4219 41.0542 11.6342 41.4234 12.0122C41.7926 12.3902 42 12.9029 42 13.4375C42 13.9721 41.7926 14.4848 41.4234 14.8628C41.0542 15.2408 40.5534 15.4531 40.0312 15.4531H1.96875C1.44661 15.4531 0.945846 15.2408 0.576634 14.8628C0.207421 14.4848 0 13.9721 0 13.4375ZM1.96875 22.8438C1.44661 22.8438 0.945846 23.0561 0.576634 23.4341C0.207421 23.8121 0 24.3248 0 24.8594C0 25.394 0.207421 25.9066 0.576634 26.2846C0.945846 26.6626 1.44661 26.875 1.96875 26.875H40.0312C40.5534 26.875 41.0542 26.6626 41.4234 26.2846C41.7926 25.9066 42 25.394 42 24.8594C42 24.3248 41.7926 23.8121 41.4234 23.4341C41.0542 23.0561 40.5534 22.8438 40.0312 22.8438H1.96875Z" fill="#EC6130"/>
</svg>
