<svg width="142" height="43" viewBox="0 0 142 43" fill="none" xmlns="http://www.w3.org/2000/svg">
<g clip-path="url(#clip0_746_105)">
<path d="M88.4741 39.1693C118.473 32.5329 141.011 19.2416 138.814 9.48235C136.617 -0.27693 110.517 -2.80856 80.5185 3.8278C50.5196 10.4642 27.9816 23.7555 30.1785 33.5147C32.3754 43.274 58.4752 45.8056 88.4741 39.1693Z" stroke="#EC6130" stroke-miterlimit="10"/>
<path d="M22.6011 22.7825H43.9341C44.9994 22.7825 46.1409 22.6568 47.3331 22.4054C48.5253 22.1539 49.4132 21.7264 49.9712 21.0977L51.1888 23.8387H39.1398V33.9223H34.3203V23.8387H22.6011V22.7825ZM26.3806 9.00243H38.5564C39.8247 9.00243 41.1438 8.92699 42.5643 8.75097C43.9848 8.57494 45.177 8.24804 46.1155 7.74512L47.3585 10.0586H39.9516C39.8755 10.6118 39.7233 11.165 39.495 11.7434C40.4589 11.9948 41.3721 12.2966 42.2852 12.6486C43.1984 13.0007 43.9341 13.403 44.5428 13.8054C45.6082 14.4843 46.4199 15.2638 46.9526 16.0937C47.4853 16.9486 47.7643 17.7533 47.7643 18.5077C47.7643 19.0609 47.6375 19.5135 47.3585 19.9159C47.1048 20.3182 46.7243 20.5948 46.2677 20.7708C45.7858 20.9217 45.3546 21.0223 45.0248 21.0223C44.2638 21.0223 43.6043 20.7206 43.0462 20.117C42.4882 19.5135 41.9301 18.5831 41.3974 17.3007C41.093 16.5463 40.6618 15.9176 40.1291 15.3896C39.5964 14.8615 38.9369 14.3586 38.2013 13.9059C37.2627 15.0878 36.0198 16.1439 34.4725 17.0995C32.9251 18.0551 31.2002 18.8094 29.247 19.3627C27.3192 19.9159 25.3153 20.1925 23.2606 20.1925C26.5328 18.558 29.1202 16.9235 31.048 15.289C32.9759 13.6545 34.0159 11.8942 34.1427 10.0586H26.3806V9.00243Z" fill="#EC6130"/>
<path d="M53.3447 8.65037H61.1068C62.3497 8.65037 63.2883 8.60008 63.9224 8.49949C64.5566 8.39891 64.9624 8.29832 65.1146 8.22288C65.2668 8.1223 65.5205 7.97142 65.8249 7.7451L70.0864 8.65037L69.4776 19.5638C69.4523 19.8656 69.5537 20.117 69.7567 20.3433C69.9596 20.5697 70.1879 20.7457 70.4669 20.9217C70.7206 21.0977 70.9235 21.1983 71.025 21.2738H64.4805V19.1363C63.2375 20.0919 61.9439 20.7457 60.6248 21.1229C59.2804 21.5001 57.8345 21.7767 56.2365 21.9527C56.0335 22.003 55.8052 22.0281 55.577 22.0533C55.3487 22.0784 55.095 22.1036 54.8667 22.179V9.70651H53.3701V8.65037H53.3447ZM60.4219 33.3188C59.9907 32.9164 59.7877 32.3884 59.7877 31.7346V29.0691H58.8492V28.0129H72.8006V24.241H59.1536V23.1849H63.4405C69.1732 23.1849 72.9782 22.9083 74.8553 22.3802L78.4065 23.1849L77.2143 28.0129H78.4065V29.0691H65.3683V32.8662H79.0153V33.9223H61.9692C61.3604 33.9223 60.8278 33.7211 60.4219 33.3188ZM62.5273 19.5135C63.3897 19.0609 64.0239 18.6083 64.4551 18.1305V9.70651H60.4726V20.2176C60.98 20.1925 61.6648 19.9662 62.5273 19.5135ZM78.4319 7.04101V14.61C80.0807 14.3586 81.2222 13.8556 81.9071 13.1264L83.1246 15.8673H78.4319V20.7205L72.8006 21.651V11.6176C72.8006 10.6369 72.7499 9.7568 72.6484 9.00241C72.5469 8.24803 72.344 7.44335 72.0396 6.63867L78.4319 7.04101Z" fill="#EC6130"/>
<path d="M111.434 7.04101V33.2685L105.802 34.4755V27.2083L95.6052 28.2895C91.09 28.7673 87.8431 29.4463 85.8138 30.3515L84.647 28.365L105.802 26.2024V11.6176C105.802 10.6369 105.752 9.7568 105.65 9.00241C105.549 8.24803 105.346 7.44335 105.041 6.63867L111.434 7.04101ZM87.8431 11.6428C88.7563 10.7124 90.05 10.1591 91.6988 9.95797C91.572 9.30417 91.3944 8.70066 91.1915 8.14744L97.5837 8.54978V10.0334C99.1057 10.2597 100.273 10.8381 101.11 11.7936C101.947 12.7492 102.353 14.2831 102.353 16.4457C102.353 18.4071 101.997 19.8907 101.287 20.8463C100.577 21.7767 99.6891 22.3802 98.5984 22.6317C97.5076 22.8831 96.1125 23.0088 94.413 23.0088C92.7134 23.0088 91.3183 22.8831 90.2275 22.6317C89.1368 22.3802 88.249 21.7767 87.5387 20.8211C86.8285 19.8656 86.4733 18.4071 86.4733 16.4205C86.4733 14.1825 86.9299 12.5732 87.8431 11.6428ZM92.3329 19.8907C92.5866 20.796 92.891 21.4246 93.2715 21.827C93.6266 22.2293 94.0325 22.4053 94.4383 22.4053C94.8442 22.4053 95.2247 22.2042 95.6052 21.827C95.9603 21.4246 96.2901 20.796 96.5437 19.8907C96.7974 18.9855 96.9242 17.8539 96.9242 16.4457C96.9242 15.0375 96.7974 13.8808 96.5437 13.0007C96.2901 12.0954 95.9857 11.4667 95.6052 11.0644C95.25 10.6621 94.8442 10.486 94.4383 10.486C94.0325 10.486 93.652 10.6872 93.2715 11.0644C92.891 11.4416 92.5866 12.0703 92.3329 12.9755C92.0793 13.8808 91.9524 15.0124 91.9524 16.4205C91.9524 17.8287 92.0793 18.9855 92.3329 19.8907Z" fill="#EC6130"/>
<path d="M117.699 19.1363C119.094 17.3761 120.16 15.6159 120.921 13.8808C121.656 12.1205 122.011 10.6621 121.935 9.50534H115.543V8.42405H123.762C125.03 8.42405 126.349 8.34861 127.769 8.17259C129.19 7.99657 130.382 7.66967 131.321 7.16674L132.538 9.48019H128.429C128.302 10.7878 127.846 12.1457 127.059 13.5539C128.454 14.1322 129.52 14.8363 130.255 15.641C131.194 16.6217 131.65 17.7281 131.65 18.9352C131.65 19.7398 131.448 20.4439 131.016 21.0726C130.585 21.7012 130.052 22.0533 129.393 22.1539C129.114 22.2042 128.886 22.2042 128.759 22.2042C127.186 22.2042 126.374 20.972 126.374 18.5328C126.374 17.351 126.171 16.3451 125.74 15.5404C124.193 17.6024 122.265 19.3626 119.906 20.8463C117.572 22.3299 115.239 23.21 112.93 23.5118C114.706 22.3299 116.304 20.8966 117.699 19.1363ZM141.29 24.9954L140.858 32.0866C140.833 32.3884 140.909 32.6398 141.036 32.841C141.188 33.0422 141.34 33.2182 141.543 33.3942C141.746 33.5702 141.898 33.696 141.974 33.7714H137.282C133.223 33.7714 129.9 33.872 127.338 34.048C124.751 34.2241 123.051 34.4504 122.189 34.6767V27.8621C122.189 27.2083 122.113 26.5042 121.935 25.8001C121.783 25.096 121.631 24.6182 121.504 24.3919L127.744 24.9954V27.7112H135.709C135.709 27.0071 135.684 26.4036 135.608 25.9007C135.531 25.3977 135.379 24.8948 135.126 24.3919L141.29 24.9954ZM135.709 32.7153V28.7673H127.769V32.7153H135.709ZM141.264 7.04101V22.1036L135.633 23.0088V11.6176C135.633 10.6369 135.582 9.7568 135.481 9.00241C135.379 8.24803 135.176 7.44335 134.872 6.63867L141.264 7.04101Z" fill="#EC6130"/>
<path d="M41.7783 18.407C43.2749 17.4765 44.8984 16.5461 46.6233 15.6409" stroke="white" stroke-width="0.1" stroke-miterlimit="10"/>
<path d="M34.0923 24.3918C34.625 23.8638 35.183 23.3105 35.8172 22.7825" stroke="white" stroke-width="0.1" stroke-miterlimit="10"/>
<path d="M16.5895 16.1942C16.5895 16.0434 16.5641 15.8925 16.5388 15.7416V15.0627H16.4627C15.8792 11.0896 12.4802 8.02173 8.29475 8.02173C4.10933 8.02173 0.684888 11.0896 0.126831 15.0627H0.0760986V15.3896C0.0507324 15.6662 0 15.9176 0 16.1942C0 16.2194 0 16.2194 0 16.2445H0.0760986V31.8352H16.5388V16.2445H16.5895C16.5641 16.2445 16.5895 16.2194 16.5895 16.1942Z" fill="black"/>
<path d="M9.48682 31.8603V16.2697C9.48682 16.2445 9.48682 16.2445 9.48682 16.2194C9.48682 16.0685 9.51218 15.9176 9.51218 15.7668V15.0627H9.53755C9.79121 11.0896 11.2625 8.02173 13.0381 8.02173C14.8137 8.02173 16.3103 11.0896 16.5386 15.0627H16.564V15.3896C16.564 15.6662 16.5894 15.9428 16.5894 16.2194C16.5894 16.2445 16.5894 16.2445 16.5894 16.2697H16.564V31.8603L9.56291 34.2492L9.48682 31.8603H10.0195Z" fill="#EC6130"/>
<path d="M11.1104 22.355C11.3626 22.355 11.567 22.051 11.567 21.676C11.567 21.301 11.3626 20.9971 11.1104 20.9971C10.8582 20.9971 10.6538 21.301 10.6538 21.676C10.6538 22.051 10.8582 22.355 11.1104 22.355Z" fill="white"/>
</g>
<defs>
<clipPath id="clip0_746_105">
<rect width="142" height="43" fill="white"/>
</clipPath>
</defs>
</svg>
