<svg width="140" height="43" viewBox="0 0 140 43" fill="none" xmlns="http://www.w3.org/2000/svg">
<g clip-path="url(#clip0_2463_494)">
<path d="M87.1264 39.012C116.723 32.4342 138.958 19.2592 136.79 9.58494C134.623 -0.0893293 108.873 -2.59946 79.2768 3.9784C49.6806 10.5563 27.4454 23.7312 29.6131 33.4055C31.7807 43.0798 57.5303 45.5899 87.1264 39.012Z" stroke="#EC6130" stroke-miterlimit="10"/>
<path d="M21.9563 22.9652H43.1808C44.2531 22.9652 45.3821 22.8396 46.5742 22.5883C47.7663 22.337 48.6431 21.8973 49.2108 21.2754L50.4218 24.0206H38.425V34.0906H33.644V24.0206H21.9563V22.9652ZM25.7092 9.18888H37.8195C39.0684 9.18888 40.4056 9.10093 41.8184 8.93132C43.2313 8.7617 44.4108 8.42248 45.3632 7.91992L46.5742 10.2442H39.2135C39.1315 10.7845 38.9801 11.3499 38.7593 11.9341C39.7054 12.1728 40.6326 12.4743 41.5283 12.8387C42.4239 13.203 43.1808 13.58 43.7864 13.982C44.8586 14.6667 45.6597 15.4269 46.1958 16.2749C46.7319 17.1167 46.9968 17.9208 46.9968 18.6872C46.9968 19.2274 46.8644 19.7049 46.6058 20.1069C46.3409 20.509 45.9813 20.7917 45.5146 20.9487C45.0289 21.112 44.6189 21.1874 44.272 21.1874C43.5278 21.1874 42.8718 20.8859 42.3041 20.2828C41.7364 19.6797 41.194 18.7437 40.6705 17.4811C40.3677 16.7398 39.9514 16.099 39.4153 15.5651C38.8792 15.0311 38.2421 14.5348 37.4915 14.07C36.5454 15.2572 35.3028 16.3252 33.7701 17.28C32.2374 18.2349 30.5029 18.9887 28.5791 19.5415C26.649 20.0944 24.6685 20.3708 22.6312 20.3708C25.8795 18.7437 28.4656 17.1104 30.383 15.4708C32.3005 13.8312 33.3286 12.0911 33.4737 10.238H25.7092V9.18888Z" fill="#EC6130"/>
<path d="M52.5349 8.82537H60.2552C61.4851 8.82537 62.4186 8.77511 63.0557 8.6746C63.6927 8.57409 64.0901 8.47986 64.2541 8.38563C64.4181 8.29768 64.6452 8.14063 64.9479 7.92076L69.1865 8.82537L68.581 19.7434C68.5621 20.0449 68.6504 20.3025 68.8522 20.5098C69.0541 20.7234 69.2874 20.9119 69.546 21.0815C69.811 21.2511 69.9876 21.3704 70.0885 21.427H63.5792V19.3162C62.3493 20.2585 61.0688 20.9181 59.7317 21.2888C58.4008 21.6594 56.9438 21.9358 55.3732 22.118C55.1714 22.1557 54.9569 22.1871 54.7236 22.2059C54.4902 22.2248 54.2568 22.2688 54.0108 22.3253V9.88073H52.5286V8.82537H52.5349ZM59.5614 33.4758C59.1388 33.0612 58.9243 32.5335 58.9243 31.8927V29.2417H58.016V28.1864H71.8798V24.4172H58.3188V23.3618H62.5889C68.3035 23.3618 72.0879 23.0917 73.9423 22.5452L77.4871 23.3618L76.3076 28.1864H77.4871V29.2417H64.5253V33.0423H78.0863V34.0977H61.1319C60.5075 34.0914 59.984 33.8904 59.5614 33.4758ZM61.6617 19.6932C62.5196 19.2409 63.1629 18.7823 63.5855 18.3237V9.88073H59.6181V20.3716C60.1227 20.3716 60.8039 20.1517 61.6617 19.6932ZM77.4808 7.22975V14.7995C79.1144 14.5357 80.2687 14.0457 80.931 13.3232L82.142 16.0685H77.4808V20.9244L71.8798 21.829V11.8093C71.8798 10.823 71.8293 9.94984 71.7284 9.18344C71.6275 8.41704 71.4257 7.63808 71.1229 6.83398L77.4808 7.22975Z" fill="#EC6130"/>
<path d="M98.8567 25.8306V13.317C98.8567 12.3307 98.8062 11.4575 98.7053 10.6911C98.6044 9.92471 98.4026 9.14574 98.0998 8.34165L103.549 8.73114V17.2055H104.912V11.8093C104.912 10.823 104.861 9.94984 104.76 9.18344C104.66 8.41704 104.458 7.63808 104.155 6.83398L109.605 7.22347V33.4255L104.912 34.6316V18.3237C104.325 18.3614 103.871 18.4242 103.549 18.5059V31.6226L98.8567 32.8287V26.886H86.7779C86.1535 26.886 85.63 26.6724 85.2011 26.2515C84.7785 25.8306 84.564 25.3092 84.564 24.681V9.96868H83.6558V8.91959H90.165V25.8369H98.8567V25.8306Z" fill="#EC6130"/>
<path d="M115.842 19.3037C117.236 17.5447 118.302 15.7921 119.034 14.0394C119.772 12.293 120.106 10.8356 120.05 9.66715H113.692V8.61178H121.866C123.115 8.61178 124.452 8.52383 125.865 8.35422C127.278 8.18461 128.457 7.84538 129.41 7.34282L130.621 9.66715H126.534C126.414 10.9738 125.96 12.3307 125.171 13.7379C126.565 14.3221 127.625 15.0131 128.35 15.8172C129.277 16.8035 129.744 17.8965 129.744 19.1026C129.744 19.9067 129.53 20.6166 129.107 21.226C128.684 21.8416 128.148 22.1934 127.505 22.2939C127.221 22.3316 127.013 22.3567 126.868 22.3567C125.291 22.3567 124.509 21.1317 124.509 18.6755C124.509 17.4882 124.294 16.4956 123.872 15.6915C122.339 17.7395 120.403 19.5047 118.075 20.981C115.742 22.4572 113.427 23.3493 111.125 23.6508C112.872 22.5138 114.449 21.0626 115.842 19.3037ZM139.306 25.171L138.884 32.2571C138.865 32.5586 138.921 32.8099 139.066 33.0109C139.212 33.2119 139.382 33.4004 139.584 33.57C139.786 33.7396 139.924 33.8653 140.006 33.9469H135.345C131.308 33.9469 128.01 34.0349 125.442 34.217C122.882 34.3992 121.172 34.6065 120.327 34.8515V28.0356C120.327 27.3697 120.245 26.685 120.087 25.9688C119.923 25.2527 119.785 24.7878 119.665 24.568L125.871 25.171V27.8848H133.806C133.806 27.1812 133.768 26.5782 133.699 26.0756C133.629 25.5731 133.472 25.0705 133.232 24.568L139.306 25.171ZM133.762 32.8853V28.9339H125.859V32.8853H133.762ZM139.275 7.22975V22.275L133.674 23.1796V11.8093C133.674 10.823 133.623 9.94984 133.522 9.18344C133.421 8.41704 133.219 7.63808 132.917 6.83398L139.275 7.22975Z" fill="#EC6130"/>
<path d="M41.0425 18.4429C42.5184 17.5132 44.1205 16.596 45.8298 15.6914" stroke="white" stroke-miterlimit="10"/>
<path d="M33.4609 24.3617C33.9781 23.8277 34.5458 23.2937 35.1513 22.7598" stroke="white" stroke-width="0.1" stroke-miterlimit="10"/>
<path d="M53.9854 11.8669C57.3157 10.4723 60.9046 9.14686 64.708 7.92188" stroke="white" stroke-miterlimit="10"/>
<path d="M109.888 32.0449C108.034 32.7736 106.11 33.4772 104.123 34.1619" stroke="white" stroke-width="0.1" stroke-miterlimit="10"/>
<path d="M109.951 32.1387C108.097 32.8674 106.173 33.571 104.186 34.2557" stroke="white" stroke-miterlimit="10"/>
<path d="M124.843 24.8828C123.474 25.7246 122.011 26.5601 120.453 27.3768" stroke="white" stroke-miterlimit="10"/>
<path d="M136.512 5.53497C137.63 5.53497 138.537 4.63215 138.537 3.51846C138.537 2.40477 137.63 1.50195 136.512 1.50195C135.394 1.50195 134.487 2.40477 134.487 3.51846C134.487 4.63215 135.394 5.53497 136.512 5.53497Z" fill="#EC6130"/>
<path d="M135.515 6.98438C136.146 7.78218 136.581 8.65538 136.789 9.59139C137.376 12.1984 136.184 15.0567 133.56 17.9778" stroke="white" stroke-miterlimit="10"/>
<path d="M8.40151 8.18555C3.75924 8.18555 0 11.9296 0 16.5531V17.8032V23.0235V31.3911H16.7967V23.0235V17.8032V16.5531C16.7967 11.9296 13.0375 8.18555 8.40151 8.18555Z" fill="#3F3434"/>
<path d="M13.0186 8.18555C10.9308 8.18555 9.23413 11.9296 9.23413 16.5531V17.8032V23.0235V31.3911H16.7968V23.0235V17.8032V16.5531C16.7968 11.9296 15.1064 8.18555 13.0186 8.18555Z" fill="#EC6130"/>
<path d="M9.18994 30.002V34.5312L16.7967 31.384L9.18994 30.002Z" fill="#EC6130"/>
<path d="M10.5901 22.1255C10.7991 22.1255 10.9686 21.8639 10.9686 21.5413C10.9686 21.2186 10.7991 20.957 10.5901 20.957C10.3811 20.957 10.2117 21.2186 10.2117 21.5413C10.2117 21.8639 10.3811 22.1255 10.5901 22.1255Z" fill="white"/>
</g>
<defs>
<clipPath id="clip0_2463_494">
<rect width="140" height="43" fill="white"/>
</clipPath>
</defs>
</svg>
