<svg width="64" height="64" viewBox="0 0 64 64" fill="none" xmlns="http://www.w3.org/2000/svg">
<circle cx="32" cy="32" r="31" stroke="#CED3D6" stroke-width="2"/>
<path d="M25.625 29.125L31.125 16.75C32.219 16.75 33.2682 17.1846 34.0418 17.9582C34.8154 18.7318 35.25 19.781 35.25 20.875V26.375H43.0325C43.4311 26.3705 43.826 26.4527 44.1897 26.6159C44.5534 26.7792 44.8772 27.0195 45.1388 27.3203C45.4004 27.6212 45.5934 27.9753 45.7046 28.3581C45.8157 28.7409 45.8423 29.1434 45.7825 29.5375L43.885 41.9125C43.7856 42.5682 43.4525 43.166 42.9471 43.5955C42.4418 44.0251 41.7982 44.2575 41.135 44.25H25.625M25.625 29.125V44.25M25.625 29.125H21.5C20.7707 29.125 20.0712 29.4147 19.5555 29.9305C19.0397 30.4462 18.75 31.1457 18.75 31.875V41.5C18.75 42.2293 19.0397 42.9288 19.5555 43.4445C20.0712 43.9603 20.7707 44.25 21.5 44.25H25.625" stroke="#4D5256" stroke-width="2" stroke-linecap="round" stroke-linejoin="round"/>
</svg>
